<svg width="111" height="39" viewBox="0 0 111 39" fill="none" xmlns="http://www.w3.org/2000/svg">
<g clip-path="url(#clip0_2027_22978)">
<path d="M19.539 0H9.76953V9.66558H19.539V0Z" fill="black"/>
<path d="M29.3085 0H19.5391V9.66558H29.3085V0Z" fill="black"/>
<path d="M9.76947 9.66602H0V19.3316H9.76947V9.66602Z" fill="black"/>
<path d="M9.76947 0H0V9.66558H9.76947V0Z" fill="black"/>
<path d="M19.539 19.332H9.76953V28.9976H19.539V19.332Z" fill="black"/>
<path d="M9.76947 28.9961H0V38.6617H9.76947V28.9961Z" fill="black"/>
<path d="M45.4766 15.5239V4.25781H53.092V5.35093H46.684V9.63934H52.837V10.7499H46.684V15.5254H45.4766V15.5239Z" fill="black"/>
<path d="M54.3828 12.2112V7.2168H55.6064V12.0431C55.6064 13.8422 56.3376 14.6323 57.9861 14.6323C59.5335 14.6323 60.5871 13.8248 60.5871 11.8749V7.2168H61.7945V15.5239H60.6897V13.6914H60.6384C60.2984 14.6497 59.3459 15.6921 57.5963 15.6921C55.4042 15.6921 54.3843 14.196 54.3843 12.2112H54.3828Z" fill="black"/>
<path d="M64.2744 13.1719V8.26155H62.8633V7.21917H64.2905L64.5792 5.09961H65.4965V7.21917H68.1488V8.26155H65.4965V13.24C65.4965 14.2157 65.9552 14.4346 67.0439 14.4346H68.1488V15.4103C67.8601 15.4611 67.3326 15.5452 66.7215 15.5452C65.1741 15.5452 64.2744 14.9392 64.2744 13.1733V13.1719Z" fill="black"/>
<path d="M69.3203 12.2112V7.2168H70.5439V12.0431C70.5439 13.8422 71.2751 14.6323 72.9236 14.6323C74.471 14.6323 75.5246 13.8248 75.5246 11.8749V7.2168H76.732V15.5239H75.6272V13.6914H75.5759C75.2359 14.6497 74.2834 15.6921 72.5338 15.6921C70.3417 15.6921 69.3218 14.196 69.3218 12.2112H69.3203Z" fill="black"/>
<path d="M78.6562 15.5241V7.11552H79.7611V8.51164H79.8461C80.1187 7.73747 80.9334 7.04883 82.1745 7.04883C83.9081 7.04883 84.5719 8.27678 84.5719 9.70625V10.1774H83.3483V9.89182C83.3483 8.59718 82.9409 8.09266 81.7335 8.09266C80.4249 8.09266 79.8813 8.68126 79.8813 10.0266V15.5256H78.6577L78.6562 15.5241Z" fill="black"/>
<path d="M85.4688 11.3706C85.4688 8.84799 86.981 7.04883 89.3783 7.04883C91.4005 7.04883 93.0666 8.25938 93.0666 10.7153C93.0666 11.1024 93.0329 11.4721 92.9816 11.7069H86.6249C86.6762 13.5394 87.4074 14.6166 89.412 14.6166C91.1118 14.6166 91.7917 13.8598 91.7917 12.8508V12.7493H92.9992V12.8667C92.9992 14.4644 91.5367 15.6923 89.3959 15.6923C86.8125 15.6923 85.4688 13.8932 85.4688 11.3706ZM86.6249 10.8327H91.9104C91.9778 8.86538 90.9931 8.09121 89.3431 8.09121C87.4733 8.09121 86.726 9.15099 86.6234 10.8327H86.6249Z" fill="black"/>
<path d="M97.5195 11.3706C97.5195 8.84799 99.1343 7.04883 101.599 7.04883C104.064 7.04883 105.611 8.84799 105.611 11.3706C105.611 13.8932 104.048 15.6923 101.599 15.6923C99.1505 15.6923 97.5195 13.8932 97.5195 11.3706ZM104.421 11.3706C104.421 9.30176 103.623 8.14195 101.599 8.14195C99.5754 8.14195 98.727 9.30176 98.727 11.3706C98.727 13.4394 99.5432 14.6166 101.599 14.6166C103.655 14.6166 104.421 13.4394 104.421 11.3706Z" fill="black"/>
<path d="M107.429 15.5239V8.25916H106.188V7.21678H107.429V6.89783C107.429 5.18276 108.397 4.25781 110.251 4.25781H110.998V5.24945H110.03C109.061 5.24945 108.619 5.65249 108.619 6.49335V7.21678H110.998V8.25916H108.636V15.5239H107.429Z" fill="black"/>
<path d="M45.2188 30.2325V29.9802H46.4262V30.1658C46.4262 31.7301 47.2585 32.7058 49.7921 32.7058C51.6795 32.7058 52.5631 32.0838 52.5631 30.7892C52.5631 29.4946 51.9857 29.0567 50.2683 28.687L48.296 28.2492C46.5112 27.8795 45.2876 27.072 45.2876 25.2554C45.2876 23.6245 46.6475 22.2109 49.3496 22.2109C52.3066 22.2109 53.5991 23.9941 53.5991 25.8266V26.0456H52.3916V25.86C52.3916 24.3131 51.5754 23.32 49.332 23.32C47.4446 23.32 46.5097 23.942 46.5097 25.1699C46.5097 26.3979 47.1384 26.8183 48.8045 27.2054L50.7768 27.6592C52.6642 28.0796 53.7852 28.9538 53.7852 30.7196C53.7852 32.4854 52.4429 33.8134 49.7569 33.8134C46.5947 33.8134 45.2188 32.165 45.2188 30.231V30.2325Z" fill="black"/>
<path d="M55.3672 36.5723V25.3381H56.4721V26.9531H56.5233C56.897 25.8934 57.9008 25.1699 59.4804 25.1699C61.8426 25.1699 63.1526 26.869 63.1526 29.5091C63.1526 32.1491 61.9114 33.8149 59.6167 33.8149C58.0019 33.8149 56.9644 32.974 56.5908 32.0665V36.5738H55.3672V36.5723ZM59.2767 32.771C60.9091 32.771 61.929 32.0317 61.929 29.5091C61.929 26.9865 60.9267 26.2123 59.2767 26.2123C57.6268 26.2123 56.5908 27.0706 56.5908 28.7856V30.2151C56.5908 31.9142 57.6106 32.771 59.2767 32.771Z" fill="black"/>
<path d="M64.375 29.4917C64.375 26.9691 65.9898 25.1699 68.4545 25.1699C70.9192 25.1699 72.4666 26.9691 72.4666 29.4917C72.4666 32.0143 70.9031 33.8134 68.4545 33.8134C66.0059 33.8134 64.375 32.0143 64.375 29.4917ZM71.2768 29.4917C71.2768 27.4229 70.4782 26.263 68.4545 26.263C66.4309 26.263 65.5824 27.4229 65.5824 29.4917C65.5824 31.5605 66.3986 32.7377 68.4545 32.7377C70.5104 32.7377 71.2768 31.5605 71.2768 29.4917Z" fill="black"/>
<path d="M73.9453 33.6452V25.2366H75.0502V26.6327H75.1352C75.4077 25.8586 76.2225 25.1699 77.4636 25.1699C79.1971 25.1699 79.8609 26.3979 79.8609 27.8273V28.2985H78.6374V28.0129C78.6374 26.7183 78.23 26.2138 77.0225 26.2138C75.714 26.2138 75.1703 26.8024 75.1703 28.1477V33.6467H73.9468L73.9453 33.6452Z" fill="black"/>
<path d="M81.9346 31.293V26.3826H80.5234V25.3403H81.9507L82.2394 23.2207H83.1567V25.3403H85.8089V26.3826H83.1567V31.3611C83.1567 32.3368 83.6153 32.5557 84.7041 32.5557H85.8089V33.5314C85.5203 33.5822 84.9927 33.6663 84.3817 33.6663C82.8343 33.6663 81.9346 33.0603 81.9346 31.2944V31.293Z" fill="black"/>
<path d="M86.6602 30.9219V30.8885H87.85V31.0901C87.85 32.2339 88.3263 32.7892 90.2297 32.7892C91.7933 32.7892 92.2021 32.3514 92.2021 31.5105C92.2021 30.6696 91.6746 30.3666 90.3997 30.1318L89.0062 29.8969C87.6463 29.6446 86.6602 29.0227 86.6602 27.5599C86.6602 26.0971 87.8837 25.1721 89.8722 25.1721C91.8607 25.1721 93.2044 26.1478 93.2044 28.0137V28.0977H92.0321V27.9629C92.0321 26.9713 91.6409 26.2145 89.84 26.2145C88.3101 26.2145 87.8339 26.7016 87.8339 27.5425C87.8339 28.3833 88.2588 28.669 89.5161 28.9053L90.9434 29.1749C92.4058 29.4446 93.3744 30.0825 93.3744 31.4626C93.3744 32.9429 92.1508 33.8171 90.2122 33.8171C87.9174 33.8171 86.6602 32.8588 86.6602 30.9248V30.9219Z" fill="black"/>
<path d="M37.966 4.25781H37.2891V34.0737H37.966V4.25781Z" fill="black"/>
</g>
<defs>
<clipPath id="clip0_2027_22978">
<rect width="111" height="38.6609" fill="white"/>
</clipPath>
</defs>
</svg>
