<svg width="572" height="572" viewBox="0 0 572 572" fill="none" xmlns="http://www.w3.org/2000/svg">
<rect x="0.5" y="0.5" width="571" height="571" fill="#0040C0"/>
<rect x="0.5" y="0.5" width="571" height="571" stroke="#6D6D6D"/>
<path d="M117.973 322.449V182.792L101 181.094V179.396H151.918V181.094L133.91 182.792V323.298H179.653C182.965 323.298 185.38 322.802 186.897 321.812C188.415 320.68 189.795 318.557 191.037 315.444L205.112 279.151L207.596 279.575L202.421 325.844H101V324.146L117.973 322.449Z" fill="white"/>
<path d="M291.425 323.722C284.663 327.401 277.005 329.24 268.45 329.24C261.964 329.24 255.686 328.179 249.615 326.057C243.543 324.076 238.369 321.246 234.091 317.567L229.744 329.24H227.054L224.363 278.514L226.226 278.089C228.295 287.711 230.365 295.211 232.435 300.587C234.643 305.964 237.472 310.634 240.921 314.595C247.959 322.661 257.273 326.693 268.864 326.693C278.799 326.693 286.526 324.076 292.046 318.84C297.703 313.464 300.532 306.247 300.532 297.191C300.532 290.824 299.014 285.447 295.978 281.061C293.081 276.675 289.079 272.925 283.974 269.812C278.868 266.699 271.693 263.091 262.447 258.987C254.858 255.592 248.511 252.266 243.405 249.012C238.3 245.616 234.022 241.3 230.572 236.065C227.261 230.688 225.605 224.179 225.605 216.539C225.605 208.756 227.399 201.823 230.986 195.739C234.712 189.513 239.748 184.702 246.096 181.306C252.581 177.769 259.895 176 268.036 176C273.693 176 278.937 176.99 283.767 178.971C288.734 180.952 294.047 184.207 299.704 188.735L304.672 178.547H307.362L309.432 224.816L307.362 225.453C305.155 215.973 302.326 207.624 298.876 200.408C291.977 185.834 281.421 178.547 267.208 178.547C258.653 178.547 251.822 181.094 246.717 186.188C241.611 191.14 239.058 197.932 239.058 206.563C239.058 212.789 240.438 218.024 243.198 222.269C246.096 226.514 250.029 230.193 254.996 233.306C260.102 236.419 267.277 240.169 276.522 244.555C284.801 248.375 291.425 251.983 296.392 255.379C301.498 258.775 305.569 263.02 308.604 268.114C311.778 273.066 313.365 279.221 313.365 286.579C313.365 294.786 311.433 302.144 307.569 308.653C303.706 315.02 298.324 320.043 291.425 323.722Z" fill="white"/>
<path d="M417.225 322.236C423.158 319.548 428.126 315.94 432.127 311.412C438.889 303.63 443.994 292.027 447.444 276.604L450.135 277.028V325.844H447.444L440.407 314.171C434.197 318.84 427.436 322.519 420.122 325.208C412.947 327.896 405.979 329.24 399.217 329.24C387.212 329.24 376.173 325.844 366.1 319.053C356.165 312.261 348.3 303.064 342.504 291.461C336.847 279.717 334.018 266.77 334.018 252.62C334.018 238.612 336.847 225.736 342.504 213.992C348.3 202.248 356.165 192.98 366.1 186.188C376.035 179.396 386.936 176 398.803 176C405.013 176 411.36 177.061 417.845 179.184C424.469 181.165 431.782 184.348 439.786 188.735L444.753 178.547H447.444L449.514 226.302L446.616 227.151C444.684 216.256 441.648 207.271 437.509 200.196C433.369 193.263 427.988 187.956 421.364 184.278C414.741 180.457 407.427 178.547 399.424 178.547C384.797 178.547 373.551 184.985 365.686 197.861C357.821 210.737 353.888 228.99 353.888 252.62C353.888 276.109 357.821 294.291 365.686 307.167C373.551 319.902 384.728 326.269 399.217 326.269C405.427 326.269 411.429 324.925 417.225 322.236Z" fill="white"/>
<path d="M108.72 367.015H119.678V370.581H108.72C107.415 370.581 106.295 370.181 105.359 369.382C104.444 368.563 103.986 367.584 103.986 366.445V351.853H108.077V366.445C108.077 366.605 108.135 366.745 108.252 366.865C108.389 366.965 108.545 367.015 108.72 367.015Z" fill="white"/>
<path d="M127.091 355.509C126.857 355.509 126.662 355.579 126.507 355.718C126.351 355.858 126.273 356.018 126.273 356.198V359.464H139.656V363.06H126.273V366.326C126.273 366.525 126.351 366.695 126.507 366.835C126.662 366.975 126.857 367.045 127.091 367.045H142.198V370.61H127.091C126.195 370.61 125.367 370.421 124.607 370.041C123.867 369.662 123.273 369.142 122.825 368.483C122.396 367.824 122.182 367.105 122.182 366.326V356.198C122.182 355.019 122.659 354.02 123.614 353.201C124.568 352.362 125.727 351.943 127.091 351.943H142.198V355.509H127.091Z" fill="white"/>
<path d="M159.664 353.022L169.394 370.79H164.865L162.732 366.925H150.751L148.443 370.79H143.826L154.463 352.932C154.735 352.512 155.105 352.183 155.573 351.943C156.04 351.683 156.547 351.563 157.092 351.583C157.657 351.583 158.164 351.713 158.612 351.973C159.079 352.233 159.43 352.582 159.664 353.022ZM152.885 363.359H160.774L157.005 356.438L152.885 363.359Z" fill="white"/>
<path d="M180.261 359.464H191.365V366.116C191.365 366.955 191.121 367.734 190.634 368.453C190.166 369.152 189.524 369.712 188.705 370.131C187.887 370.531 187.001 370.73 186.046 370.73H176.14C175.186 370.73 174.299 370.531 173.481 370.131C172.663 369.712 172.01 369.152 171.523 368.453C171.056 367.734 170.822 366.955 170.822 366.116V356.497C170.822 355.219 171.338 354.13 172.371 353.231C173.423 352.313 174.679 351.853 176.14 351.853H185.696C186.67 351.853 187.556 352.063 188.355 352.482C189.173 352.882 189.816 353.441 190.283 354.16C190.77 354.879 191.014 355.658 191.014 356.497V356.947H186.923V356.497C186.923 356.298 186.864 356.118 186.748 355.958C186.65 355.798 186.504 355.668 186.309 355.569C186.134 355.469 185.929 355.419 185.696 355.419H176.14C175.809 355.419 175.517 355.529 175.264 355.748C175.03 355.948 174.913 356.198 174.913 356.497V366.086C174.913 366.386 175.03 366.645 175.264 366.865C175.517 367.065 175.809 367.165 176.14 367.165H186.046C186.377 367.165 186.66 367.065 186.894 366.865C187.147 366.645 187.274 366.386 187.274 366.086V363.06H180.261V359.464Z" fill="white"/>
<path d="M211.728 351.853H215.819V366.116C215.819 367.394 215.263 368.483 214.153 369.382C213.062 370.281 211.737 370.73 210.179 370.73H200.799C199.241 370.73 197.906 370.281 196.796 369.382C195.705 368.483 195.159 367.394 195.159 366.116V351.853H199.25V366.116C199.25 366.396 199.406 366.645 199.718 366.865C200.03 367.065 200.39 367.165 200.799 367.165H210.179C210.588 367.165 210.948 367.065 211.26 366.865C211.572 366.645 211.728 366.396 211.728 366.116V351.853Z" fill="white"/>
<path d="M224.686 355.509C224.452 355.509 224.257 355.579 224.101 355.718C223.945 355.858 223.867 356.018 223.867 356.198V359.464H237.251V363.06H223.867V366.326C223.867 366.525 223.945 366.695 224.101 366.835C224.257 366.975 224.452 367.045 224.686 367.045H239.793V370.61H224.686C223.789 370.61 222.961 370.421 222.202 370.041C221.461 369.662 220.867 369.142 220.419 368.483C219.991 367.824 219.776 367.105 219.776 366.326V356.198C219.776 355.019 220.254 354.02 221.208 353.201C222.163 352.362 223.322 351.943 224.686 351.943H239.793V355.509H224.686Z" fill="white"/>
<path d="M272.485 357.217H268.394V356.288C268.394 356.088 268.287 355.918 268.072 355.778C267.858 355.619 267.614 355.539 267.342 355.539H258.225C257.933 355.539 257.679 355.619 257.465 355.778C257.27 355.918 257.173 356.088 257.173 356.288V356.348C257.173 356.627 257.338 356.837 257.67 356.977L269.738 362.67C270.556 363.05 271.199 363.579 271.666 364.258C272.134 364.937 272.377 365.666 272.397 366.445C272.397 367.604 271.92 368.603 270.965 369.442C269.952 370.341 268.715 370.79 267.254 370.79H258.225C256.842 370.79 255.644 370.381 254.631 369.562C253.598 368.703 253.082 367.664 253.082 366.445V365.636H257.173V366.445C257.173 366.645 257.261 366.815 257.436 366.955C257.65 367.135 257.913 367.225 258.225 367.225H267.254C267.566 367.225 267.829 367.125 268.043 366.925C268.199 366.785 268.277 366.625 268.277 366.445C268.277 366.186 268.121 365.976 267.809 365.816L255.712 360.123C254.894 359.744 254.251 359.214 253.783 358.535C253.316 357.856 253.082 357.127 253.082 356.348V356.288C253.082 355.509 253.306 354.79 253.754 354.13C254.222 353.451 254.845 352.922 255.624 352.542C256.423 352.163 257.29 351.973 258.225 351.973H267.342C268.764 351.973 269.972 352.402 270.965 353.261C271.978 354.1 272.485 355.109 272.485 356.288V357.217Z" fill="white"/>
<path d="M291.58 351.853C292.418 351.853 293.187 352.043 293.889 352.422C294.609 352.802 295.174 353.321 295.583 353.981C295.992 354.62 296.197 355.329 296.197 356.108V360.453C296.197 361.232 295.992 361.951 295.583 362.61C295.174 363.249 294.609 363.759 293.889 364.138C293.187 364.518 292.418 364.708 291.58 364.708H280.155V370.73H276.064V351.853H291.58ZM292.106 360.453V356.108C292.106 355.928 292.048 355.768 291.931 355.629C291.833 355.489 291.716 355.419 291.58 355.419H280.155V361.142H291.58C291.716 361.142 291.833 361.082 291.931 360.962C292.048 360.822 292.106 360.652 292.106 360.453Z" fill="white"/>
<path d="M316.049 351.553C317.588 351.553 318.903 352.043 319.994 353.022C321.104 354.001 321.66 355.179 321.66 356.557V365.996C321.66 367.374 321.104 368.553 319.994 369.532C318.903 370.511 317.588 371 316.049 371H305.004C303.465 371 302.14 370.511 301.03 369.532C299.939 368.553 299.393 367.374 299.393 365.996V356.557C299.393 355.179 299.939 354.001 301.03 353.022C302.14 352.043 303.465 351.553 305.004 351.553H316.049ZM317.569 365.996V356.557C317.569 356.158 317.413 355.818 317.101 355.539C316.809 355.259 316.458 355.119 316.049 355.119H305.004C304.731 355.119 304.478 355.189 304.244 355.329C304.01 355.449 303.825 355.619 303.689 355.838C303.552 356.058 303.484 356.298 303.484 356.557V365.996C303.484 366.376 303.63 366.705 303.923 366.985C304.215 367.265 304.575 367.404 305.004 367.404H316.049C316.322 367.404 316.575 367.344 316.809 367.225C317.043 367.105 317.228 366.935 317.364 366.715C317.501 366.495 317.569 366.256 317.569 365.996Z" fill="white"/>
<path d="M342.533 363.958L347.15 370.79H342.387L337.887 364.108H329.822V370.73H325.731V351.853H341.248C342.514 351.853 343.595 352.253 344.491 353.052C345.407 353.851 345.865 354.81 345.865 355.928V360.033C345.865 360.952 345.553 361.771 344.93 362.49C344.306 363.209 343.507 363.699 342.533 363.958ZM341.774 360.033V355.928C341.774 355.788 341.715 355.668 341.598 355.569C341.501 355.469 341.384 355.419 341.248 355.419H329.822V360.543H341.248C341.384 360.543 341.501 360.493 341.598 360.393C341.715 360.293 341.774 360.173 341.774 360.033Z" fill="white"/>
<path d="M348.316 351.913H369.034V355.479H360.823V370.7H356.732V355.479H348.316V351.913Z" fill="white"/>
<path d="M390.419 357.217H386.328V356.288C386.328 356.088 386.221 355.918 386.006 355.778C385.792 355.619 385.548 355.539 385.276 355.539H376.159C375.867 355.539 375.613 355.619 375.399 355.778C375.204 355.918 375.107 356.088 375.107 356.288V356.348C375.107 356.627 375.272 356.837 375.604 356.977L387.672 362.67C388.49 363.05 389.133 363.579 389.6 364.258C390.068 364.937 390.311 365.666 390.331 366.445C390.331 367.604 389.854 368.603 388.899 369.442C387.886 370.341 386.649 370.79 385.188 370.79H376.159C374.776 370.79 373.578 370.381 372.565 369.562C371.532 368.703 371.016 367.664 371.016 366.445V365.636H375.107V366.445C375.107 366.645 375.194 366.815 375.37 366.955C375.584 367.135 375.847 367.225 376.159 367.225H385.188C385.5 367.225 385.763 367.125 385.977 366.925C386.133 366.785 386.211 366.625 386.211 366.445C386.211 366.186 386.055 365.976 385.743 365.816L373.646 360.123C372.828 359.744 372.185 359.214 371.717 358.535C371.25 357.856 371.016 357.127 371.016 356.348V356.288C371.016 355.509 371.24 354.79 371.688 354.13C372.156 353.451 372.779 352.922 373.558 352.542C374.357 352.163 375.224 351.973 376.159 351.973H385.276C386.698 351.973 387.906 352.402 388.899 353.261C389.912 354.1 390.419 355.109 390.419 356.288V357.217Z" fill="white"/>
<path d="M426.084 359.374H421.993V356.557C421.993 356.258 421.808 355.998 421.438 355.778C421.088 355.539 420.669 355.419 420.182 355.419H410.188C409.954 355.419 409.721 355.459 409.487 355.539C409.273 355.599 409.078 355.678 408.902 355.778C408.747 355.878 408.62 355.998 408.523 356.138C408.425 356.278 408.376 356.418 408.376 356.557V366.086C408.376 366.386 408.562 366.655 408.932 366.895C409.302 367.115 409.721 367.225 410.188 367.225H420.182C420.669 367.225 421.088 367.115 421.438 366.895C421.808 366.655 421.993 366.386 421.993 366.086V363.149H426.084V366.086C426.084 367.384 425.5 368.493 424.331 369.412C423.182 370.331 421.799 370.79 420.182 370.79H410.188C408.571 370.79 407.178 370.331 406.01 369.412C404.86 368.493 404.286 367.384 404.286 366.086V356.557C404.286 355.259 404.86 354.15 406.01 353.231C407.178 352.313 408.571 351.853 410.188 351.853H420.182C421.799 351.853 423.182 352.313 424.331 353.231C425.5 354.15 426.084 355.259 426.084 356.557V359.374Z" fill="white"/>
<path d="M446.39 351.553C447.929 351.553 449.243 352.043 450.334 353.022C451.445 354.001 452 355.179 452 356.557V365.996C452 367.374 451.445 368.553 450.334 369.532C449.243 370.511 447.929 371 446.39 371H435.344C433.805 371 432.48 370.511 431.37 369.532C430.279 368.553 429.734 367.374 429.734 365.996V356.557C429.734 355.179 430.279 354.001 431.37 353.022C432.48 352.043 433.805 351.553 435.344 351.553H446.39ZM447.909 365.996V356.557C447.909 356.158 447.753 355.818 447.441 355.539C447.149 355.259 446.799 355.119 446.39 355.119H435.344C435.071 355.119 434.818 355.189 434.584 355.329C434.351 355.449 434.165 355.619 434.029 355.838C433.893 356.058 433.825 356.298 433.825 356.557V365.996C433.825 366.376 433.971 366.705 434.263 366.985C434.555 367.265 434.915 367.404 435.344 367.404H446.39C446.662 367.404 446.916 367.344 447.149 367.225C447.383 367.105 447.568 366.935 447.704 366.715C447.841 366.495 447.909 366.256 447.909 365.996Z" fill="white"/>
</svg>
