<svg width="42" height="42" viewBox="0 0 42 42" fill="none" xmlns="http://www.w3.org/2000/svg">
<circle cx="32.375" cy="7.875" r="4.375" stroke="#4D4D4D" stroke-width="2.5"/>
<path d="M25.2 38.5002V37.0913C25.2 36.9552 25.2 36.8872 25.1993 36.8224C25.1598 33.0786 23.4103 29.5585 20.45 27.2662C20.3988 27.2266 20.3446 27.1855 20.2361 27.1033C20.1661 27.0503 20.1311 27.0237 20.1035 27.0019C18.4291 25.6797 18.3172 23.1798 19.8667 21.7132C19.8922 21.6891 19.9249 21.6594 19.9897 21.6004L21.8098 19.9458C24.6571 17.3574 23.7904 12.6783 20.205 11.2813C18.9214 10.7813 17.4916 10.8127 16.2313 11.3687L15.3184 11.7715M9.5182 15.0706L7 16.8638" stroke="#4D4D4D" stroke-width="2.5" stroke-linecap="round"/>
<path d="M15.75 29.75L15.2961 30.2946C12.8116 33.2761 9.13103 35 5.25 35" stroke="#4D4D4D" stroke-width="2.5" stroke-linecap="round"/>
<path d="M28 21C30.298 21.5745 32.702 21.5745 35 21" stroke="#4D4D4D" stroke-width="2.5" stroke-linecap="round"/>
</svg>
